<svg xmlns="http://www.w3.org/2000/svg" xmlns:xlink="http://www.w3.org/1999/xlink" viewBox="0 0 192 192"><defs><style>.cls-1{fill:none;}.cls-2{isolation:isolate;}.cls-3{fill:url(#linear-gradient);}.cls-4{fill:#00295b;opacity:0.15;mix-blend-mode:overlay;}.cls-5{fill:#f2f5fe;}.cls-6{clip-path:url(#clip-path);}.cls-7{fill:#fafbff;}</style><linearGradient id="linear-gradient" x1="8" y1="96" x2="184" y2="96" gradientUnits="userSpaceOnUse"><stop offset="0" stop-color="#5295f7"/><stop offset="1" stop-color="#0064f4"/></linearGradient><clipPath id="clip-path"><path class="cls-1" d="M30.43,76.7H96L85.45,111.86a4.81,4.81,0,0,1-4.62,3.44H30.43a4.82,4.82,0,0,1-4.83-4.82v-29A4.82,4.82,0,0,1,30.43,76.7Zm131.14,0H96l10.55,35.16a4.81,4.81,0,0,0,4.62,3.44h50.4a4.82,4.82,0,0,0,4.83-4.82v-29A4.82,4.82,0,0,0,161.57,76.7Z"/></clipPath></defs><title>User_Icon</title><g class="cls-2"><g id="Out"><circle class="cls-3" cx="96" cy="96" r="88"/><path class="cls-4" d="M36,76.7l-8,37.94L95,184h1a88,88,0,0,0,87.91-84.25L166.4,81.52,156,76.7Z"/><path class="cls-5" d="M80.83,115.3H30.43a4.82,4.82,0,0,1-4.83-4.82v-29a4.82,4.82,0,0,1,4.83-4.82H96L85.45,111.86A4.81,4.81,0,0,1,80.83,115.3Z"/><path class="cls-5" d="M111.17,115.3h50.4a4.82,4.82,0,0,0,4.83-4.82v-29a4.82,4.82,0,0,0-4.83-4.82H96l10.55,35.16A4.81,4.81,0,0,0,111.17,115.3Z"/><g class="cls-6"><rect class="cls-7" x="39.6" y="60.11" width="15.21" height="80.12" transform="translate(-57 62.72) rotate(-45)"/><rect class="cls-7" x="56.92" y="51.15" width="6.15" height="80.12" transform="translate(-46.92 69.14) rotate(-45)"/><rect class="cls-7" x="119.6" y="54.03" width="15.21" height="80.12" transform="translate(-29.27 117.5) rotate(-45)"/><rect class="cls-7" x="136.92" y="45.06" width="6.15" height="80.12" transform="translate(-19.18 123.93) rotate(-45)"/></g></g></g></svg>